<?xml version="1.0" encoding="UTF-8"?>
<svg width="320px" height="411px" viewBox="0 0 320 411" version="1.1" xmlns="http://www.w3.org/2000/svg" xmlns:xlink="http://www.w3.org/1999/xlink">
    <title>Combined Shape</title>
    <g id="Page-1" stroke="none" stroke-width="1" fill="none" fill-rule="evenodd">
        <g id="iPhone-SE" transform="translate(0.000000, -157.000000)" fill="#D8D8D8">
            <path d="M239.901777,156.999248 L295.643091,157 C304.112519,157 307.183738,157.881843 310.280034,159.537761 C313.37633,161.193678 315.806322,163.62367 317.462239,166.719966 C319.118157,169.816262 320,172.887481 320,181.356909 L320,568 L0,568 L6.56032195e-16,181.356909 C-3.81173598e-16,172.887481 0.881843306,169.816262 2.53776069,166.719966 C4.19367807,163.62367 6.62366952,161.193678 9.71996582,159.537761 C12.756718,157.913688 15.7693483,157.034203 23.8742391,157.000978 L80.098223,156.999248 C82.1819712,199.324047 117.158265,233 160,233 C202.841735,233 237.818029,199.324047 239.901777,156.999248 Z" id="Combined-Shape"></path>
        </g>
    </g>
</svg>